<svg width="80" height="84" viewBox="0 0 80 84" fill="none" xmlns="http://www.w3.org/2000/svg">
<g clip-path="url(#clip0_57_2)">
<path d="M75.6162 43.4539L77.9542 50.6557C78.6956 52.9434 77.8829 55.4487 75.9405 56.8619L69.8209 61.3122C68.8729 62.001 68.1707 62.9717 67.8072 64.0888L65.4691 71.2907C64.7278 73.5783 62.6 75.1271 60.1978 75.1271H52.6348C51.4658 75.1271 50.3252 75.4983 49.3772 76.1871L43.2576 80.6374C41.3152 82.0507 38.6849 82.0507 36.7424 80.6374L30.6228 76.1871C29.6748 75.4983 28.5343 75.1271 27.3653 75.1271H19.8058C17.4036 75.1271 15.2758 73.5783 14.5345 71.2907L12.1964 64.0888C11.8364 62.9753 11.1307 62.001 10.1827 61.3122L4.0631 56.8619C2.12066 55.4487 1.30805 52.9434 2.04938 50.6557L4.38744 43.4539C4.74741 42.3404 4.74741 41.1377 4.38744 40.0242L2.04938 32.8224C1.30805 30.5347 2.12066 28.0294 4.0631 26.6162L10.1827 22.1659C11.1307 21.4771 11.8329 20.5064 12.1964 19.3893L14.5345 12.1874C15.2758 9.89983 17.4036 8.35096 19.8058 8.35096H27.3653C28.5343 8.35096 29.6748 7.9798 30.6228 7.29102L36.7424 2.8407C38.6849 1.42745 41.3152 1.42745 43.2576 2.8407L49.3772 7.29102C50.3252 7.9798 51.4658 8.35096 52.6348 8.35096H60.1978C62.6 8.35096 64.7278 9.89983 65.4691 12.1874L67.8072 19.3893C68.1672 20.5028 68.8729 21.4771 69.8209 22.1659L75.9405 26.6162C77.8829 28.0294 78.6956 30.5347 77.9542 32.8224L75.6162 40.0242C75.2562 41.1377 75.2562 42.3404 75.6162 43.4539Z" fill="#FFD671"/>
<path d="M40 68.3107C54.6568 68.3107 66.5384 56.4133 66.5384 41.7372C66.5384 27.0611 54.6568 15.1638 40 15.1638C25.3433 15.1638 13.4617 27.0611 13.4617 41.7372C13.4617 56.4133 25.3433 68.3107 40 68.3107Z" fill="#EAB111"/>
<path d="M49.7265 52.7935L40.2317 49.421L30.8937 53.2111L31.1646 43.1256L24.6779 35.4062L34.3402 32.5476L39.6686 23.9824L45.3711 32.3013L55.1511 34.7317L49.0137 42.7294L49.7265 52.7935Z" fill="#FFD671"/>
<path d="M39.9999 83.4783C38.4923 83.4783 36.9847 83.0107 35.6981 82.0757L29.5785 77.6254C28.9298 77.1543 28.1635 76.9045 27.3652 76.9045H19.8057C16.6265 76.9045 13.8287 74.8703 12.845 71.8403L10.5069 64.6385C10.261 63.8747 9.78699 63.2216 9.13833 62.7506L3.01875 58.3002C0.445464 56.4266 -0.623769 53.1361 0.359925 50.1062L2.69798 42.9043C2.9439 42.1406 2.9439 41.3341 2.69798 40.5739L0.359925 33.372C-0.623769 30.3421 0.445464 27.0516 3.01875 25.178L9.13833 20.7277C9.78699 20.2566 10.261 19.6035 10.5069 18.8398L12.845 11.6379C13.8287 8.60798 16.623 6.57376 19.8057 6.57376H27.3652C28.1671 6.57376 28.9334 6.32394 29.5785 5.85286L35.6981 1.40254C38.2714 -0.471093 41.7285 -0.471093 44.3018 1.40254L50.4214 5.85286C51.0701 6.32394 51.8363 6.57376 52.6347 6.57376H60.1978C63.3769 6.57376 66.1748 8.60798 67.1585 11.6379L69.4965 18.8398C69.7424 19.6035 70.2165 20.253 70.8651 20.7277L76.9847 25.178C79.558 27.0481 80.6272 30.3421 79.6435 33.372L77.3055 40.5739C77.0596 41.3376 77.0596 42.1442 77.3055 42.9043L79.6435 50.1062C80.6272 53.1361 79.558 56.4266 76.9847 58.3002L70.8651 62.7506C70.2165 63.2216 69.7424 63.8747 69.4965 64.6385L67.1585 71.8403C66.1748 74.8703 63.3769 76.9045 60.1978 76.9045H52.6347C51.8328 76.9045 51.0665 77.1543 50.4214 77.6254L44.3018 82.0757C43.0152 83.0107 41.5076 83.4783 39.9999 83.4783ZM19.8021 10.1319C18.1662 10.1319 16.7263 11.1811 16.2202 12.7371L13.8822 19.939C13.401 21.42 12.4815 22.687 11.2233 23.6042L5.10375 28.0545C3.77791 29.0181 3.22903 30.7133 3.73514 32.2728L6.07319 39.4747C6.55435 40.9558 6.55435 42.5225 6.07319 44.0035L3.73514 51.2054C3.22903 52.765 3.77791 54.4602 5.10375 55.4238L11.2233 59.8741C12.4815 60.7913 13.401 62.0582 13.8822 63.5393L16.2202 70.7411C16.7263 72.3007 18.1662 73.3464 19.8021 73.3464H27.3616C28.9156 73.3464 30.4054 73.8317 31.6635 74.7454L37.7831 79.1957C39.1089 80.1593 40.8874 80.1593 42.2133 79.1957L48.3328 74.7454C49.591 73.8282 51.0772 73.3464 52.6347 73.3464H60.1978C61.8337 73.3464 63.2736 72.2971 63.7797 70.7411L66.1177 63.5393C66.5989 62.0582 67.5184 60.7913 68.7766 59.8741L74.8961 55.4238C76.222 54.4602 76.7709 52.765 76.2648 51.2054L73.9267 44.0035C73.4455 42.5225 73.4455 40.9558 73.9267 39.4747L76.2648 32.2728C76.7709 30.7133 76.222 29.0181 74.8961 28.0545L68.7766 23.6042C67.5184 22.687 66.5989 21.42 66.1177 19.939L63.7797 12.7371C63.2736 11.1775 61.8337 10.1319 60.1978 10.1319H52.6347C51.0808 10.1319 49.591 9.64651 48.3328 8.73289L42.2133 4.28257C40.8874 3.31899 39.1089 3.31899 37.7831 4.28257L31.6635 8.73289C30.4054 9.65008 28.9191 10.1319 27.3616 10.1319H19.8021ZM39.9999 70.0916C24.3856 70.0916 11.6867 57.3723 11.6867 41.7409C11.6867 26.1095 24.3892 13.3866 39.9999 13.3866C55.6107 13.3866 68.3132 26.1059 68.3132 41.7373C68.3132 57.3688 55.6107 70.088 39.9999 70.088V70.0916ZM39.9999 16.9412C26.3458 16.9412 15.2365 28.0652 15.2365 41.7373C15.2365 55.4095 26.3458 66.5335 39.9999 66.5335C53.6541 66.5335 64.7634 55.4095 64.7634 41.7373C64.7634 28.0652 53.6541 16.9412 39.9999 16.9412ZM30.8936 54.9884C30.5372 54.9884 30.1844 54.8813 29.8814 54.6707C29.3896 54.3281 29.1009 53.7607 29.1187 53.1611L29.3718 43.7502L23.3199 36.5447C22.935 36.0843 22.8067 35.4634 22.9778 34.8888C23.1488 34.3142 23.6015 33.8645 24.1753 33.6968L33.1925 31.0273L38.1644 23.0367C38.4816 22.5264 39.0341 22.2123 39.6328 22.1981C40.2316 22.1802 40.7983 22.4764 41.1369 22.9689L46.4581 30.7311L55.5822 32.9973C56.1632 33.1401 56.6336 33.5683 56.8297 34.1358C57.0257 34.7032 56.9259 35.3313 56.5624 35.806L50.8348 43.2719L51.5013 52.6615C51.5441 53.2611 51.2839 53.8392 50.8063 54.2032C50.3287 54.5672 49.7014 54.6636 49.1383 54.4638L40.2779 51.3161L31.5637 54.8528C31.3499 54.9384 31.1218 54.9812 30.8972 54.9812L30.8936 54.9884ZM27.7822 36.3377L32.5224 41.98C32.8004 42.3119 32.9501 42.7366 32.9394 43.172L32.7434 50.5416L39.5651 47.7722C39.9679 47.608 40.417 47.5973 40.8268 47.7437L47.7661 50.2097L47.2422 42.8544C47.2101 42.419 47.342 41.9907 47.6058 41.6445L52.093 35.7988L44.9469 34.0251C44.5264 33.9216 44.1557 33.6647 43.9098 33.3042L39.7433 27.2265L35.8478 33.4827C35.6197 33.8502 35.2597 34.125 34.8427 34.2464L27.7822 36.3341V36.3377Z" fill="#896200"/>
</g>
<defs>
<clipPath id="clip0_57_2">
<rect width="80" height="83.4783" fill="white"/>
</clipPath>
</defs>
</svg>
