<svg width="81" height="83" viewBox="0 0 81 83" fill="none" xmlns="http://www.w3.org/2000/svg">
<g clip-path="url(#clip0_57_12)">
<path d="M76.5613 43.2051L78.9286 50.3657C79.6792 52.6402 78.8564 55.1312 76.8897 56.5363L70.6936 60.9612C69.7337 61.646 69.0228 62.6112 68.6548 63.7218L66.2875 70.8824C65.5369 73.1569 63.3825 74.6969 60.9503 74.6969H53.2927C52.109 74.6969 50.9543 75.066 49.9944 75.7508L43.7983 80.1756C41.8316 81.5808 39.1684 81.5808 37.2017 80.1756L31.0056 75.7508C30.0457 75.066 28.8909 74.6969 27.7073 74.6969H20.0533C17.6211 74.6969 15.4667 73.1569 14.7161 70.8824L12.3488 63.7218C11.9844 62.6147 11.2698 61.646 10.3099 60.9612L4.11387 56.5363C2.14715 55.1312 1.32437 52.6402 2.07497 50.3657L4.44226 43.2051C4.80673 42.098 4.80673 40.9022 4.44226 39.7951L2.07497 32.6345C1.32437 30.36 2.14715 27.869 4.11387 26.4639L10.3099 22.0391C11.2698 21.3542 11.9807 20.3891 12.3488 19.2784L14.7161 12.1178C15.4667 9.8433 17.6211 8.30331 20.0533 8.30331H27.7073C28.8909 8.30331 30.0457 7.93428 31.0056 7.24944L37.2017 2.82462C39.1684 1.41946 41.8316 1.41946 43.7983 2.82462L49.9944 7.24944C50.9543 7.93428 52.109 8.30331 53.2927 8.30331H60.9503C63.3825 8.30331 65.5369 9.8433 66.2875 12.1178L68.6548 19.2784C69.0192 20.3855 69.7337 21.3542 70.6936 22.0391L76.8897 26.4639C78.8564 27.869 79.6792 30.36 78.9286 32.6345L76.5613 39.7951C76.1969 40.9022 76.1969 42.098 76.5613 43.2051Z" fill="#00FF7F"/>
<path d="M40.5 67.9195C55.3399 67.9195 67.3701 56.0904 67.3701 41.4983C67.3701 26.9063 55.3399 15.0771 40.5 15.0771C25.6601 15.0771 13.6299 26.9063 13.6299 41.4983C13.6299 56.0904 25.6601 67.9195 40.5 67.9195Z" fill="#00C65E"/>
<path d="M50.348 52.491L40.7346 49.1378L31.2799 52.9062L31.5541 42.8784L24.9864 35.2033L34.7694 32.3611L40.1644 23.845L45.9382 32.1162L55.8404 34.5327L49.6263 42.4846L50.348 52.491Z" fill="#00FF7F"/>
<path d="M40.5 83C38.9736 83 37.4471 82.5351 36.1444 81.6055L29.9483 77.1806C29.2915 76.7123 28.5157 76.4639 27.7073 76.4639H20.0534C16.8344 76.4639 14.0016 74.4413 13.0056 71.4287L10.6384 64.2681C10.3894 63.5088 9.90941 62.8594 9.25264 62.391L3.05657 57.9662C0.451112 56.1033 -0.631486 52.8317 0.364504 49.8191L2.73179 42.6585C2.98078 41.8992 2.98078 41.0972 2.73179 40.3414L0.364504 33.1808C-0.631486 30.1682 0.451112 26.8966 3.05657 25.0338L9.25264 20.6089C9.90941 20.1405 10.3894 19.4912 10.6384 18.7318L13.0056 11.5712C14.0016 8.55865 16.8308 6.53608 20.0534 6.53608H27.7073C28.5193 6.53608 29.2951 6.28769 29.9483 5.81931L36.1444 1.39449C38.7498 -0.46841 42.2502 -0.46841 44.8557 1.39449L51.0518 5.81931C51.7085 6.28769 52.4844 6.53608 53.2927 6.53608H60.9503C64.1692 6.53608 67.002 8.55865 67.998 11.5712L70.3653 18.7318C70.6143 19.4912 71.0943 20.137 71.751 20.6089L77.9471 25.0338C80.5526 26.8931 81.6352 30.1682 80.6392 33.1808L78.2719 40.3414C78.0229 41.1008 78.0229 41.9027 78.2719 42.6585L80.6392 49.8191C81.6352 52.8317 80.5526 56.1033 77.9471 57.9662L71.751 62.391C71.0943 62.8594 70.6143 63.5088 70.3653 64.2681L67.998 71.4287C67.002 74.4413 64.1692 76.4639 60.9503 76.4639H53.2927C52.4808 76.4639 51.7049 76.7123 51.0518 77.1806L44.8557 81.6055C43.553 82.5351 42.0265 83 40.5 83ZM20.0497 10.0738C18.3934 10.0738 16.9355 11.117 16.423 12.6641L14.0558 19.8247C13.5686 21.2973 12.6376 22.557 11.3637 23.4689L5.16763 27.8937C3.82521 28.8518 3.26948 30.5373 3.78191 32.0879L6.14919 39.2485C6.63636 40.7211 6.63636 42.2788 6.14919 43.7514L3.78191 50.912C3.26948 52.4627 3.82521 54.1482 5.16763 55.1062L11.3637 59.531C12.6376 60.443 13.5686 61.7026 14.0558 63.1752L16.423 70.3358C16.9355 71.8865 18.3934 72.9261 20.0497 72.9261H27.7037C29.2771 72.9261 30.7855 73.4087 32.0594 74.3171L38.2554 78.7419C39.5979 79.7 41.3986 79.7 42.741 78.7419L48.9371 74.3171C50.2109 73.4052 51.7157 72.9261 53.2927 72.9261H60.9503C62.6067 72.9261 64.0646 71.8829 64.577 70.3358L66.9443 63.1752C67.4315 61.7026 68.3625 60.443 69.6364 59.531L75.8324 55.1062C77.1748 54.1482 77.7306 52.4627 77.2181 50.912L74.8509 43.7514C74.3637 42.2788 74.3637 40.7211 74.8509 39.2485L77.2181 32.0879C77.7306 30.5373 77.1748 28.8518 75.8324 27.8937L69.6364 23.4689C68.3625 22.557 67.4315 21.2973 66.9443 19.8247L64.577 12.6641C64.0646 11.1135 62.6067 10.0738 60.9503 10.0738H53.2927C51.7193 10.0738 50.2109 9.59123 48.9371 8.68284L42.741 4.25802C41.3986 3.29996 39.5979 3.29996 38.2554 4.25802L32.0594 8.68284C30.7855 9.59478 29.2807 10.0738 27.7037 10.0738H20.0497ZM40.5 69.69C24.6905 69.69 11.8328 57.0436 11.8328 41.5017C11.8328 25.9599 24.6941 13.3099 40.5 13.3099C56.306 13.3099 69.1672 25.9563 69.1672 41.4982C69.1672 57.0401 56.306 69.6865 40.5 69.6865V69.69ZM40.5 16.8441C26.6753 16.8441 15.4271 27.9044 15.4271 41.4982C15.4271 55.092 26.6753 66.1523 40.5 66.1523C54.3248 66.1523 65.573 55.092 65.573 41.4982C65.573 27.9044 54.3248 16.8441 40.5 16.8441ZM31.2799 54.6733C30.919 54.6733 30.5618 54.5669 30.255 54.3575C29.757 54.0169 29.4647 53.4527 29.4828 52.8565L29.739 43.4995L23.6115 36.3353C23.2218 35.8776 23.0919 35.2602 23.2651 34.6889C23.4383 34.1176 23.8966 33.6705 24.4776 33.5037L33.6075 30.8495L38.6416 22.9047C38.9627 22.3973 39.5221 22.0851 40.1283 22.0709C40.7346 22.0531 41.3084 22.3476 41.6512 22.8373L47.0389 30.555L56.2771 32.8082C56.8653 32.9502 57.3416 33.376 57.5401 33.9402C57.7386 34.5044 57.6376 35.1289 57.2695 35.6008L51.4704 43.024L52.1452 52.3598C52.1885 52.9559 51.925 53.5307 51.4415 53.8927C50.9579 54.2546 50.3228 54.3504 49.7526 54.1517L40.7815 51.022L31.9583 54.5385C31.7418 54.6236 31.5109 54.6662 31.2835 54.6662L31.2799 54.6733ZM28.1295 36.1295L32.9291 41.7395C33.2105 42.0695 33.3621 42.4917 33.3513 42.9246L33.1528 50.252L40.0598 47.4985C40.4676 47.3353 40.9222 47.3246 41.3372 47.4701L48.3633 49.922L47.8328 42.6088C47.8003 42.1759 47.9339 41.7501 48.2009 41.4059L52.7442 35.5937L45.5089 33.8302C45.083 33.7273 44.7077 33.4718 44.4587 33.1134L40.2402 27.0705L36.2959 33.2908C36.065 33.6563 35.7005 33.9295 35.2783 34.0502L28.1295 36.126V36.1295Z" fill="#006029"/>
</g>
<defs>
<clipPath id="clip0_57_12">
<rect width="81" height="83" fill="white"/>
</clipPath>
</defs>
</svg>
