<svg width="32" height="22" viewBox="0 0 32 22" fill="none" xmlns="http://www.w3.org/2000/svg">
<path d="M29.5141 1.72627C29.9897 1.72627 30.3763 2.11286 30.3763 2.58849V19.4111C30.3763 19.8867 29.9897 20.2733 29.5141 20.2733H2.48547C2.00984 20.2733 1.62325 19.8867 1.62325 19.4111V2.58849C1.62325 2.11286 2.00984 1.72627 2.48547 1.72627H29.5141ZM29.5141 0.0979004H2.48547C1.11248 0.0979004 -0.0027771 1.21316 -0.0027771 2.58849V19.4111C-0.0027771 20.7864 1.11248 21.8993 2.48547 21.8993H29.5118C30.8871 21.8993 32 20.7841 32 19.4111V2.58849C32.0023 1.21316 30.8871 0.0979004 29.5141 0.0979004Z" fill="#FF6B00"/>
<path d="M9.39024 5.11656L10.8007 7.975C10.8546 8.08277 10.9577 8.15775 11.0772 8.17649L14.2308 8.63572C14.5331 8.68023 14.6526 9.05042 14.4347 9.26129L12.1526 11.4848C12.0659 11.5691 12.0261 11.691 12.0472 11.8105L12.5861 14.9524C12.6376 15.2523 12.3237 15.4819 12.0542 15.339L9.23326 13.8559C9.12549 13.7996 8.99897 13.7996 8.89119 13.8559L6.07024 15.339C5.8008 15.4796 5.48684 15.2523 5.53838 14.9524L6.07727 11.8105C6.09836 11.691 6.05853 11.5691 5.97183 11.4848L3.68977 9.26129C3.47187 9.04808 3.59137 8.67789 3.89361 8.63572L7.04726 8.17649C7.16676 8.16009 7.26985 8.08512 7.32374 7.975L8.73421 5.11656C8.86542 4.84477 9.25435 4.84477 9.39024 5.11656Z" fill="#FF6B00"/>
<path d="M27.7803 7.31192H17.7524C17.6961 7.31192 17.6516 7.26741 17.6516 7.21117V5.54063C17.6516 5.4844 17.6961 5.43988 17.7524 5.43988H27.7803C27.8366 5.43988 27.8811 5.4844 27.8811 5.54063V7.20883C27.8811 7.26741 27.8342 7.31192 27.7803 7.31192Z" fill="#FF6B00"/>
<path d="M28.9003 11.937H17.7524C17.6961 11.937 17.6516 11.8924 17.6516 11.8362V10.168C17.6516 10.1118 17.6961 10.0673 17.7524 10.0673H28.9003C28.9565 10.0673 29.001 10.1118 29.001 10.168V11.8362C29.0034 11.8901 28.9565 11.937 28.9003 11.937Z" fill="#FF6B00"/>
<path d="M26.8314 16.5597H17.7524C17.6961 16.5597 17.6516 16.5152 17.6516 16.459V14.7908C17.6516 14.7345 17.6961 14.69 17.7524 14.69H26.8314C26.8876 14.69 26.9322 14.7345 26.9322 14.7908V16.459C26.9322 16.5152 26.8876 16.5597 26.8314 16.5597Z" fill="#FF6B00"/>
</svg>
