<svg width="38" height="26" viewBox="0 0 38 26" fill="none" xmlns="http://www.w3.org/2000/svg">
<path d="M35.0679 25.9439H2.93206C1.31303 25.9439 0 24.6309 0 23.0119V2.98816C0 1.36912 1.31303 0.0560913 2.93206 0.0560913H35.0679C36.687 0.0560913 38 1.36912 38 2.98816V23.0091C38 24.6309 36.687 25.9439 35.0679 25.9439Z" fill="url(#paint0_linear_10_77)"/>
<path d="M11.1524 6.01479L12.8271 9.40864C12.8911 9.5366 13.0135 9.62562 13.1554 9.64788L16.8997 10.1931C17.2586 10.246 17.4004 10.6855 17.1417 10.9359L14.4322 13.5758C14.3293 13.676 14.282 13.8206 14.307 13.9625L14.9469 17.693C15.0081 18.049 14.6353 18.3217 14.3154 18.152L10.966 16.3911C10.8381 16.3243 10.6879 16.3243 10.5599 16.3911L7.21055 18.152C6.89064 18.3189 6.51787 18.049 6.57907 17.693L7.2189 13.9625C7.24393 13.8206 7.19664 13.676 7.09371 13.5758L4.3842 10.9359C4.12549 10.6827 4.26736 10.2432 4.62622 10.1931L8.37058 9.64788C8.51245 9.6284 8.63486 9.53938 8.69884 9.40864L10.3735 6.01479C10.5293 5.69209 10.9911 5.69209 11.1524 6.01479Z" fill="white"/>
<path d="M32.9871 8.62137H21.0808C21.014 8.62137 20.9612 8.56852 20.9612 8.50176V6.5183C20.9612 6.45154 21.014 6.39868 21.0808 6.39868H32.9871C33.0539 6.39868 33.1067 6.45154 33.1067 6.5183V8.49897C33.1067 8.56852 33.0511 8.62137 32.9871 8.62137Z" fill="#000066"/>
<path d="M34.3168 14.1127H21.0808C21.014 14.1127 20.9612 14.0599 20.9612 13.9931V12.0124C20.9612 11.9457 21.014 11.8928 21.0808 11.8928H34.3168C34.3836 11.8928 34.4364 11.9457 34.4364 12.0124V13.9931C34.4392 14.0571 34.3836 14.1127 34.3168 14.1127Z" fill="#000066"/>
<path d="M31.8605 19.6013H21.0808C21.014 19.6013 20.9612 19.5485 20.9612 19.4817V17.501C20.9612 17.4343 21.014 17.3814 21.0808 17.3814H31.8605C31.9272 17.3814 31.9801 17.4343 31.9801 17.501V19.4817C31.9801 19.5485 31.9272 19.6013 31.8605 19.6013Z" fill="#000066"/>
<defs>
<linearGradient id="paint0_linear_10_77" x1="-1.27117" y1="0.242411" x2="38.976" y2="25.5718" gradientUnits="userSpaceOnUse">
<stop stop-color="#1E1ADC"/>
<stop offset="0.7411" stop-color="#060E82"/>
<stop offset="1" stop-color="#05066F"/>
</linearGradient>
</defs>
</svg>
