<svg width="25" height="24" viewBox="0 0 25 24" fill="none" xmlns="http://www.w3.org/2000/svg">
<path d="M7.33334 1.52588e-05C3.77221 1.52588e-05 0.875 2.99068 0.875 6.66668V17.3334C0.875 21.0094 3.77221 24 7.33334 24H17.6667C21.2278 24 24.125 21.0094 24.125 17.3334V6.66668C24.125 2.99068 21.2278 1.52588e-05 17.6667 1.52588e-05H7.33334ZM7.33334 2.66668H17.6667C19.8031 2.66668 21.5417 4.46135 21.5417 6.66668V17.3334C21.5417 19.5387 19.8031 21.3334 17.6667 21.3334H7.33334C5.19692 21.3334 3.45833 19.5387 3.45833 17.3334V6.66668C3.45833 4.46135 5.19692 2.66668 7.33334 2.66668ZM18.9583 4.00002C18.245 4.00002 17.6667 4.59698 17.6667 5.33335C17.6667 6.06972 18.245 6.66668 18.9583 6.66668C19.6717 6.66668 20.25 6.06972 20.25 5.33335C20.25 4.59698 19.6717 4.00002 18.9583 4.00002ZM12.5 5.33335C8.93888 5.33335 6.04167 8.32402 6.04167 12C6.04167 15.676 8.93888 18.6667 12.5 18.6667C16.0611 18.6667 18.9583 15.676 18.9583 12C18.9583 8.32402 16.0611 5.33335 12.5 5.33335ZM12.5 8.00002C14.6364 8.00002 16.375 9.79468 16.375 12C16.375 14.2054 14.6364 16 12.5 16C10.3636 16 8.625 14.2054 8.625 12C8.625 9.79468 10.3636 8.00002 12.5 8.00002Z" fill="#0B1447"/>
</svg>
