<svg width="80" height="84" viewBox="0 0 80 84" fill="none" xmlns="http://www.w3.org/2000/svg">
<g clip-path="url(#clip0_57_22)">
<path d="M75.6162 43.3967L77.9543 50.589C78.6956 52.8736 77.883 55.3756 75.9405 56.787L69.821 61.2315C68.8729 61.9193 68.1708 62.8888 67.8072 64.0043L65.4692 71.1967C64.7279 73.4813 62.6001 75.0281 60.1979 75.0281H52.6348C51.4658 75.0281 50.3253 75.3988 49.3772 76.0867L43.2577 80.5311C41.3152 81.9425 38.6849 81.9425 36.7425 80.5311L30.6229 76.0867C29.6748 75.3988 28.5343 75.0281 27.3653 75.0281H19.8058C17.4036 75.0281 15.2758 73.4813 14.5345 71.1967L12.1964 64.0043C11.8365 62.8923 11.1308 61.9193 10.1827 61.2315L4.06315 56.787C2.12071 55.3756 1.30809 52.8736 2.04943 50.589L4.38748 43.3967C4.74746 42.2847 4.74746 41.0836 4.38748 39.9716L2.04943 32.7792C1.30809 30.4946 2.12071 27.9926 4.06315 26.5812L10.1827 22.1368C11.1308 21.4489 11.8329 20.4794 12.1964 19.3639L14.5345 12.1715C15.2758 9.88691 17.4036 8.34009 19.8058 8.34009H27.3653C28.5343 8.34009 29.6748 7.96942 30.6229 7.28155L36.7425 2.8371C38.6849 1.42572 41.3152 1.42572 43.2577 2.8371L49.3772 7.28155C50.3253 7.96942 51.4658 8.34009 52.6348 8.34009H60.1979C62.6001 8.34009 64.7279 9.88691 65.4692 12.1715L67.8072 19.3639C68.1672 20.4759 68.8729 21.4489 69.821 22.1368L75.9405 26.5812C77.883 27.9926 78.6956 30.4946 77.9543 32.7792L75.6162 39.9716C75.2562 41.0836 75.2562 42.2847 75.6162 43.3967Z" fill="white"/>
<path d="M40.0001 68.2205C54.6568 68.2205 66.5384 56.3389 66.5384 41.6822C66.5384 27.0254 54.6568 15.1438 40.0001 15.1438C25.3433 15.1438 13.4617 27.0254 13.4617 41.6822C13.4617 56.3389 25.3433 68.2205 40.0001 68.2205Z" fill="#BFBFBF"/>
<path d="M49.7265 52.724L40.2317 49.3559L30.8938 53.141L31.1646 43.0688L24.6779 35.3596L34.3402 32.5048L39.6686 23.9509L45.3712 32.2589L55.1511 34.686L49.0137 42.6732L49.7265 52.724Z" fill="white"/>
<path d="M40.0001 83.3681C38.4924 83.3681 36.9848 82.9012 35.6982 81.9674L29.5786 77.5229C28.9299 77.0525 28.1636 76.803 27.3653 76.803H19.8058C16.6266 76.803 13.8288 74.7714 12.8451 71.7455L10.5071 64.5531C10.2611 63.7904 9.7871 63.1382 9.13843 62.6677L3.01886 58.2233C0.445571 56.3521 -0.623662 53.066 0.360032 50.0401L2.69809 42.8477C2.94401 42.085 2.94401 41.2795 2.69809 40.5203L0.360032 33.328C-0.623662 30.302 0.445571 27.0159 3.01886 25.1448L9.13843 20.7003C9.7871 20.2299 10.2611 19.5776 10.5071 18.8149L12.8451 11.6225C13.8288 8.59662 16.6231 6.56508 19.8058 6.56508H27.3653C28.1672 6.56508 28.9335 6.31559 29.5786 5.84513L35.6982 1.40068C38.2715 -0.470475 41.7286 -0.470475 44.3019 1.40068L50.4215 5.84513C51.0702 6.31559 51.8365 6.56508 52.6348 6.56508H60.1979C63.377 6.56508 66.1749 8.59662 67.1586 11.6225L69.4966 18.8149C69.7425 19.5776 70.2166 20.2263 70.8652 20.7003L76.9848 25.1448C79.5581 27.0124 80.6273 30.302 79.6436 33.328L77.3056 40.5203C77.0597 41.2831 77.0597 42.0886 77.3056 42.8477L79.6436 50.0401C80.6273 53.066 79.5581 56.3521 76.9848 58.2233L70.8652 62.6677C70.2166 63.1382 69.7425 63.7904 69.4966 64.5531L67.1586 71.7455C66.1749 74.7714 63.377 76.803 60.1979 76.803H52.6348C51.8329 76.803 51.0666 77.0525 50.4215 77.5229L44.3019 81.9674C43.0153 82.9012 41.5077 83.3681 40.0001 83.3681ZM19.8022 10.1185C18.1663 10.1185 16.7264 11.1663 16.2203 12.7203L13.8823 19.9127C13.4011 21.3918 12.4816 22.657 11.2234 23.573L5.10386 28.0175C3.77801 28.9798 3.22914 30.6727 3.73524 32.2302L6.0733 39.4226C6.55445 40.9017 6.55445 42.4663 6.0733 43.9455L3.73524 51.1378C3.22914 52.6953 3.77801 54.3883 5.10386 55.3506L11.2234 59.7951C12.4816 60.711 13.4011 61.9763 13.8823 63.4554L16.2203 70.6478C16.7264 72.2053 18.1663 73.2496 19.8022 73.2496H27.3617C28.9157 73.2496 30.4055 73.7343 31.6636 74.6467L37.7832 79.0911C39.109 80.0534 40.8875 80.0534 42.2134 79.0911L48.3329 74.6467C49.5911 73.7307 51.0773 73.2496 52.6348 73.2496H60.1979C61.8338 73.2496 63.2737 72.2017 63.7798 70.6478L66.1178 63.4554C66.599 61.9763 67.5185 60.711 68.7767 59.7951L74.8962 55.3506C76.2221 54.3883 76.771 52.6953 76.2649 51.1378L73.9268 43.9455C73.4457 42.4663 73.4457 40.9017 73.9268 39.4226L76.2649 32.2302C76.771 30.6727 76.2221 28.9798 74.8962 28.0175L68.7767 23.573C67.5185 22.657 66.599 21.3918 66.1178 19.9127L63.7798 12.7203C63.2737 11.1628 61.8338 10.1185 60.1979 10.1185H52.6348C51.0809 10.1185 49.5911 9.63377 48.3329 8.72136L42.2134 4.27692C40.8875 3.31461 39.109 3.31461 37.7832 4.27692L31.6636 8.72136C30.4055 9.63734 28.9192 10.1185 27.3617 10.1185H19.8022ZM40.0001 69.9991C24.3857 69.9991 11.6868 57.2966 11.6868 41.6858C11.6868 26.075 24.3893 13.369 40.0001 13.369C55.6109 13.369 68.3133 26.0714 68.3133 41.6822C68.3133 57.293 55.6109 69.9955 40.0001 69.9955V69.9991ZM40.0001 16.9188C26.346 16.9188 15.2366 28.0281 15.2366 41.6822C15.2366 55.3363 26.346 66.4457 40.0001 66.4457C53.6542 66.4457 64.7635 55.3363 64.7635 41.6822C64.7635 28.0281 53.6542 16.9188 40.0001 16.9188ZM30.8938 54.9158C30.5373 54.9158 30.1845 54.8089 29.8815 54.5986C29.3897 54.2564 29.101 53.6897 29.1188 53.091L29.3719 43.6924L23.32 36.4965C22.9351 36.0367 22.8068 35.4165 22.9779 34.8427C23.1489 34.2689 23.6016 33.8198 24.1754 33.6523L33.1926 30.9864L38.1645 23.0063C38.4817 22.4966 39.0342 22.183 39.633 22.1687C40.2317 22.1509 40.7984 22.4467 41.137 22.9386L46.4582 30.6905L55.5823 32.9537C56.1633 33.0963 56.6337 33.524 56.8298 34.0907C57.0258 34.6574 56.926 35.2847 56.5625 35.7587L50.8349 43.2148L51.5014 52.592C51.5442 53.1908 51.284 53.7681 50.8064 54.1317C50.3288 54.4952 49.7016 54.5915 49.1384 54.3919L40.2781 51.2483L31.5638 54.7803C31.35 54.8659 31.1219 54.9087 30.8973 54.9087L30.8938 54.9158ZM27.7823 36.2897L32.5226 41.9246C32.8006 42.2561 32.9502 42.6802 32.9396 43.115L32.7435 50.4749L39.5652 47.7092C39.968 47.5452 40.4171 47.5345 40.8269 47.6806L47.7662 50.1434L47.2423 42.7978C47.2102 42.363 47.3421 41.9353 47.6059 41.5896L52.0931 35.7516L44.947 33.9802C44.5265 33.8768 44.1558 33.6202 43.9099 33.2603L39.7434 27.1906L35.8479 33.4385C35.6198 33.8056 35.2598 34.08 34.8428 34.2012L27.7823 36.2862V36.2897Z" fill="#424242"/>
</g>
<defs>
<clipPath id="clip0_57_22">
<rect width="80" height="83.3681" fill="white"/>
</clipPath>
</defs>
</svg>
