<svg width="84" height="83" viewBox="0 0 84 83" fill="none" xmlns="http://www.w3.org/2000/svg">
<g clip-path="url(#clip0_32_115)">
<path d="M70.1501 71.8202C62.81 78.821 52.8715 83 41.9194 83C30.9673 83 21.0287 78.821 13.6887 71.8202C20.8033 70.579 30.628 68.9963 30.628 68.9963C36.162 67.9805 39.2115 70.6907 40.1134 73.1753C40.2272 73.4008 40.4527 73.2891 40.4527 73.1753V64.7056C40.4527 64.6297 40.4148 64.5918 40.3389 64.5918H36.0482C35.9344 64.5918 35.8227 64.478 35.8227 64.3663V61.8817C35.8227 61.7678 35.9366 61.6562 36.0482 61.6562H40.3389C40.4527 61.6562 40.4527 61.5424 40.4527 61.5424C40.4527 59.1716 38.7583 57.7027 31.8692 58.8323L17.1891 61.4285L10.2999 68.3177C4.08944 61.0936 0.47522 51.7198 0.47522 41.4442C0.47522 18.6337 18.9951 0 41.9194 0C64.8437 0 83.4752 18.6337 83.4752 41.4442C83.4752 51.7198 79.7494 61.0936 73.5367 68.3198L66.6476 61.4307L53.6618 59.1716L48.8063 64.027C45.8707 67.0764 43.3861 69.5611 43.3861 72.3828V73.1731C43.3861 73.2869 43.6116 73.3986 43.7254 73.1731C44.6295 70.6885 47.6789 67.9783 53.2108 68.9941C53.2108 68.9941 63.0355 70.5746 70.1501 71.818V71.8202ZM25.0939 42.6854C24.9801 39.8615 25.8842 37.3768 30.9651 32.2959L42.1449 21.1161C45.0805 18.1805 47.5651 15.6959 47.5651 12.872V8.5813C47.5651 8.24199 47.2258 8.24199 47.2258 8.5813C46.4355 12.0817 45.0805 13.4367 42.1449 16.3723L29.2707 29.2465C24.4153 34.2157 23.625 39.2967 24.7546 42.6854C24.7546 42.9109 25.0939 43.0247 25.0939 42.6854ZM27.0138 50.1393C25.0939 45.8487 29.61 41.3303 31.7576 39.0734L42.1471 28.7977C45.0827 25.8621 47.5673 23.2636 47.5673 20.5535V16.149C47.5673 15.9236 47.228 15.9236 47.228 16.149C46.4377 19.6494 45.0827 21.1183 42.1471 24.0539L30.5163 35.6846C24.7568 41.3303 23.8527 46.8644 26.6766 50.3648C26.9021 50.5903 27.1276 50.4786 27.016 50.1393H27.0138ZM42.1449 36.4749C45.0805 33.5393 47.5651 30.9408 47.5651 28.1191V23.8284C47.5651 23.603 47.2258 23.603 47.2258 23.8284C46.4355 27.3288 45.0805 28.7977 42.1449 31.7333L30.7396 43.0269C25.0939 48.6726 27.6902 54.0928 31.0789 55.6756C31.3044 55.7894 31.4183 55.5617 31.1928 55.3363C28.5965 53.0771 29.3868 49.2374 32.6617 45.8508L42.1471 36.4771L42.1449 36.4749ZM48.8085 41.1049C45.8729 44.1543 43.3883 46.6389 43.3883 49.4607V53.7513C43.3883 54.0906 43.6138 54.0906 43.7276 53.7513C44.4062 50.251 45.8729 48.8959 48.8085 45.9603L53.0992 41.6697C58.7449 35.9101 56.1486 30.4899 52.8737 29.021C52.5344 28.7955 52.4227 29.1348 52.6482 29.2465C55.3583 31.6173 54.4542 35.457 51.1793 38.7319L48.8085 41.1027V41.1049ZM43.3883 61.4307C43.3883 61.77 43.6138 61.77 43.7276 61.4307C44.4062 57.9303 45.8729 56.4615 48.8085 53.5259L53.4385 48.8959C59.0842 43.2502 60.1021 37.83 57.1643 34.3296C56.9389 33.9903 56.7134 34.2157 56.9389 34.4434C58.7449 38.7341 54.2287 43.364 52.0834 45.5093L48.8085 48.7843C45.8729 51.7198 43.3883 54.3183 43.3883 57.1401V61.4307ZM45.6474 64.5918H43.5021C43.4262 64.5918 43.3883 64.6297 43.3883 64.7056V69.1101C43.3883 69.3356 43.6138 69.3356 43.7276 69.1101C44.0669 67.0764 44.7433 65.8352 45.6474 64.594V64.5918ZM58.8587 41.8929C58.8587 44.7169 58.0684 47.2015 52.8737 52.3941L48.8085 56.4593C46.8887 58.2653 45.3081 59.9597 44.2924 61.654H48.3576L54.6819 55.3297C59.5373 50.4742 60.216 45.2795 59.198 42.0046C59.0842 41.6653 58.8587 41.6653 58.8587 41.8908V41.8929ZM72.5231 59.5087C73.8782 59.5087 74.8939 58.6046 74.8939 57.2495C74.8939 55.8945 73.8782 54.9904 72.5231 54.9904C71.1681 54.9904 70.264 55.8945 70.264 57.2495C70.264 58.6046 71.1681 59.5087 72.5231 59.5087ZM72.5231 59.1694C71.3935 59.1694 70.6033 58.2653 70.6033 57.2495C70.6033 56.1199 71.3935 55.3297 72.5231 55.3297C73.6527 55.3297 74.5568 56.1199 74.5568 57.2495C74.5568 58.3791 73.6527 59.1694 72.5231 59.1694ZM71.7328 58.6046H72.1838V57.475H72.5231L73.2017 58.6046H73.7665L72.9763 57.3634C73.3156 57.2495 73.541 57.0241 73.541 56.6847C73.541 56.12 73.0901 55.8945 72.5253 55.8945H71.735V58.6046H71.7328ZM72.1838 57.1357V56.2316H72.5231C72.8624 56.2316 73.0879 56.3454 73.0879 56.6826C73.0879 56.908 72.8624 57.1335 72.5231 57.1335H72.1838V57.1357Z" fill="white"/>
</g>
<defs>
<clipPath id="clip0_32_115">
<rect width="83" height="83" fill="white" transform="translate(0.47522)"/>
</clipPath>
</defs>
</svg>
